<svg width="116" height="29" viewBox="0 0 116 29" fill="none" xmlns="http://www.w3.org/2000/svg">
<path d="M111.363 28.2205C110.035 28.2205 109.109 27.2328 109.109 25.9364C109.109 24.6401 110.035 23.6523 111.363 23.6523C112.69 23.6523 113.616 24.6401 113.616 25.9364C113.616 27.2328 112.69 28.2205 111.363 28.2205Z" fill="white"/>
<path d="M97.3801 28.2212C93.3675 28.2212 90.25 24.8567 90.25 20.5355C90.25 16.1834 93.3675 12.7881 97.3801 12.7881C99.2629 12.7881 100.868 13.5289 101.917 14.7327V13.0967H105.313V27.9125H101.917V26.3075C100.868 27.5112 99.2629 28.2212 97.3801 28.2212ZM97.9357 25.0111C100.436 25.0111 102.133 23.1591 102.133 20.5046C102.133 17.8501 100.436 15.9982 97.9357 15.9982C95.4664 15.9982 93.7379 17.8501 93.7379 20.5046C93.7379 23.1591 95.4664 25.0111 97.9357 25.0111Z" fill="white"/>
<path d="M76.4766 27.9121V5.68848H79.8718V20.0721L85.8599 13.0963H89.9033L83.6684 20.1956L90.212 27.9121H85.8907L79.8718 20.6586V27.9121H76.4766Z" fill="white"/>
<path d="M68.3611 28.2212C65.861 28.2212 63.6386 27.2334 62.2188 25.5049L64.3794 23.3443C65.398 24.5481 66.7252 25.1345 68.4228 25.1345C69.9353 25.1345 70.7378 24.6716 70.7378 23.8073C70.7378 21.1219 63.0521 22.727 63.0521 17.3563C63.0521 14.5166 65.1202 12.7881 68.5154 12.7881C70.8921 12.7881 72.7441 13.6523 73.9788 15.3191L71.8181 17.4797C70.9539 16.3994 69.8736 15.8747 68.4228 15.8747C67.0647 15.8747 66.2931 16.3068 66.2931 17.0785C66.2931 19.5169 73.9788 18.0662 73.9788 23.5295C73.9788 26.4309 71.8181 28.2212 68.3611 28.2212Z" fill="white"/>
<path d="M58.3188 10.38C57.1459 10.38 56.3125 9.48488 56.3125 8.34283C56.3125 7.20078 57.1459 6.30566 58.3188 6.30566C59.4917 6.30566 60.3251 7.20078 60.3251 8.34283C60.3251 9.48488 59.4917 10.38 58.3188 10.38ZM56.6212 27.912V13.0962H60.0164V27.912H56.6212Z" fill="white"/>
<path d="M41.6797 27.9121V5.68848H45.075V20.0721L51.063 13.0963H55.1065L48.8715 20.1956L55.4151 27.9121H51.0939L45.075 20.6586V27.9121H41.6797Z" fill="white"/>
<path fill-rule="evenodd" clip-rule="evenodd" d="M0 15.6202L8.4451 14.0044L9.14041 7.31503C8.02192 3.48825 4.62751 0.759789 1.37981 0.13602C0.62677 -0.00861191 0 0.622099 0 1.3889V15.6202ZM7.40266 7.48954C6.47038 4.72328 4.07558 2.67938 1.7104 1.97583V13.5515L6.87528 12.5633L7.40266 7.48954Z" fill="white"/>
<path fill-rule="evenodd" clip-rule="evenodd" d="M21.4046 7.31507C22.5231 3.48828 25.9175 0.75982 29.1652 0.136051C29.9183 -0.00858068 30.545 0.62213 30.545 1.38893V15.6203L22.9835 18.9218L20.0972 10.9043L21.4046 7.31507ZM21.9163 10.9077L23.0307 7.84824L23.0463 7.79491C23.9 4.87409 26.3832 2.70506 28.8346 1.97586V14.5007L23.9738 16.6231L21.9163 10.9077Z" fill="white"/>
<path fill-rule="evenodd" clip-rule="evenodd" d="M27.2725 7.21621H21.5125L20.9234 5.43314C20.7789 4.99655 20.5009 4.61674 20.1288 4.3477C19.7567 4.07865 19.3095 3.93407 18.8507 3.93448H11.6944C11.2357 3.93407 10.7885 4.07865 10.4164 4.3477C10.0443 4.61674 9.76623 4.99655 9.62173 5.43314L9.03264 7.21621H3.2727C2.40472 7.21621 1.5723 7.56196 0.958551 8.17741C0.344801 8.79285 0 9.62757 0 10.4979V24.7188C0 25.5891 0.344801 26.4238 0.958551 27.0393C1.5723 27.6547 2.40472 28.0005 3.2727 28.0005H27.2725C28.1404 28.0005 28.9729 27.6547 29.5866 27.0393C30.2004 26.4238 30.5452 25.5891 30.5452 24.7188V10.4979C30.5452 9.62757 30.2004 8.79285 29.5866 8.17741C28.9729 7.56196 28.1404 7.21621 27.2725 7.21621ZM15.2735 23.611C18.8919 23.611 21.8251 20.6778 21.8251 17.0594C21.8251 13.441 18.8919 10.5078 15.2735 10.5078C11.6552 10.5078 8.72196 13.441 8.72196 17.0594C8.72196 20.6778 11.6552 23.611 15.2735 23.611ZM26.1937 13.2372C26.1937 14.1418 25.4604 14.8752 24.5558 14.8752C23.6513 14.8752 22.9179 14.1418 22.9179 13.2372C22.9179 12.3327 23.6513 11.5993 24.5558 11.5993C25.4604 11.5993 26.1937 12.3327 26.1937 13.2372Z" fill="white"/>
<path d="M17.7034 16.8931C17.4687 18.0067 16.5381 19.3186 15.2158 19.4385C13.8935 19.3186 12.9159 17.7681 12.7282 16.8931C12.7282 15.8386 13.842 15.6203 15.2158 15.6203C16.5895 15.6203 17.7034 15.8386 17.7034 16.8931Z" fill="white"/>
</svg>
