<svg width="20" height="20" viewBox="0 0 20 20" fill="none" xmlns="http://www.w3.org/2000/svg">
<g id="search 1" clip-path="url(#clip0_151_107)">
<path id="Vector" d="M15.7518 13.9798C17.0822 12.2018 17.6897 9.98587 17.452 7.77797C17.2143 5.57007 16.1491 3.53418 14.4707 2.08012C12.7923 0.626061 10.6253 -0.138206 8.40611 -0.0588368C6.18687 0.0205322 4.08008 0.937644 2.50984 2.50789C0.939597 4.07813 0.0224853 6.18492 -0.0568836 8.40416C-0.136253 10.6234 0.628014 12.7903 2.08207 14.4687C3.53613 16.1471 5.57202 17.2124 7.77992 17.4501C9.98782 17.6878 12.2038 17.0803 13.9818 15.7498L18.2318 19.9998L20.0018 18.2332L15.7518 13.9798ZM8.75179 14.9998C7.51565 14.9998 6.30728 14.6333 5.27947 13.9465C4.25167 13.2598 3.45059 12.2836 2.97754 11.1416C2.50449 9.99957 2.38072 8.7429 2.62188 7.53052C2.86304 6.31814 3.45829 5.20449 4.33237 4.33042C5.20645 3.45634 6.32009 2.86108 7.53247 2.61993C8.74485 2.37877 10.0015 2.50254 11.1436 2.97559C12.2856 3.44863 13.2617 4.24971 13.9485 5.27752C14.6352 6.30533 15.0018 7.5137 15.0018 8.74983C15.0002 10.407 14.3413 11.9958 13.1695 13.1675C11.9977 14.3393 10.4089 14.9983 8.75179 14.9998Z" fill="white"/>
</g>
<defs>
<clipPath id="clip0_151_107">
<rect width="20" height="20" fill="white"/>
</clipPath>
</defs>
</svg>
